<svg xmlns="http://www.w3.org/2000/svg" xml:space="preserve" viewBox="0 0 864 864"><path d="M645 404a5 5 0 0 0-10-4c0 1-3 11-1 20-2 2-15 13-27 15a51 51 0 0 1-28-6l-3-12a5 5 0 0 0-9 4 51 51 0 0 1 1 25 5 5 0 0 0 6 8c2-1 4-4 5-14l18 5h11c14-2 27-12 32-16v1c9 7 14 8 17 8v1h2v-9h-1v-1c0-1-4-1-11-7-7-5-2-18-2-18z"/><path d="M762 229c-20-29-30-31-34-31a5 5 0 0 0-3 8s24 44 3 58c-22 14-47-11-47-11a5 5 0 0 0-7-1c-4 3-5 15-3 23 2 11 8 25 29 32l-9 26c-5 10-13 21-17 25a144 144 0 0 0-22-9l-30-2 1-51c10-2 17-11 18-21a24 24 0 1 0-28 21l-1 51c-10 1-20 2-30 5l-22-48a24 24 0 1 0-9 4l22 47a94 94 0 0 0-45 34 120 120 0 0 1-39-46c18-11 21-26 20-37 0-9-4-20-8-22a5 5 0 0 0-6 3c-1 0-16 25-37 23l-7-2c-23-8-11-56-10-57a5 5 0 0 0-6-6c-4 0-13 5-25 37-7 18 0 40 17 55 9 8 20 13 31 14 8 1 15-1 22-3a129 129 0 0 0 43 50 101 101 0 0 0-11 58c3 18 9 34 19 46-8 10-28 40-26 53a9 9 0 0 0 9 7c7 1 16-4 29-17 10-8 18-18 20-20 8 4 18 6 28 7a160 160 0 0 0 59-6c9 8 39 34 55 36h3c3 0 5-2 6-4 6-6 3-18-9-37l-14-21c18-20 28-45 28-72a73 73 0 0 0-36-64 122 122 0 0 0 27-55h1c18 2 35-7 47-23 13-19 14-42 4-57zm-218 70a14 14 0 1 1 15-15 7 7 0 1 0-2 9c-3 4-8 6-13 6zm-64 38c-15 7-32 5-46-8-14-12-20-29-15-43l9-19c-2 18-1 43 20 51 23 8 42-9 50-19 1 3 2 9 1 15-2 9-8 17-19 23zm136-50a14 14 0 1 1 15-12 7 7 0 1 0-7 10l-8 2zm-80 251c-14 13-20 14-21 14-1-6 11-26 23-42a76 76 0 0 0 15 11l-17 17zm161-12c11 19 10 25 10 26h-1c-8-1-29-16-46-30 8-4 16-9 23-15l14 19zm12-98c0 48-35 82-69 91-16 3-56 10-86-9a79 79 0 0 1-32-56c-3-19 2-50 24-71 21-21 53-29 92-25l12 1c14 5 58 19 59 69zm41-148c-11 15-27 22-43 18-12-3-20-9-24-17-3-6-3-12-3-15 6 4 17 11 29 12 9 1 17-1 24-6 19-12 14-37 8-54l13 16c8 12 6 31-4 46z"/><g><path d="M58 459c3 6 7 8 12 9 4 0 9-2 13-7h1v-1c4-7 7-15 7-26 0-2 0-3 2-5l5-2 5 2 2 5c0 14-3 25-10 34-6 10-14 15-23 17-10 2-20 0-28-7-9-6-16-17-20-30-8-26-8-54 1-83 3-12 9-22 16-29 8-7 16-11 26-13h11a41 41 0 0 1 8 2c13 4 22 12 29 25 1 2 2 3 1 5 0 2-2 4-3 5h-6c-2 0-3-2-4-3-3-6-7-11-12-14-4-3-9-5-14-6-8 0-14 4-20 12a139 139 0 0 0-7 93 89 89 0 0 0 8 17zM134 396v26c8-13 19-22 33-29l6-1 4 4v5c0 2-1 4-3 5-13 6-22 15-29 26-7 12-11 25-11 39 0 3-1 5-4 7h-5l-4-2-2-4c-3-7-4-17-4-31 0-15 1-30 4-46l3-5 5-1c2 0 4 1 5 3l2 4zM173 424c2-6 5-11 10-16 4-5 9-9 15-11 6-3 13-4 19-2s11 6 15 12l7 19 1 19a560 560 0 0 1-2 33l-4 2-2 1c-14 6-25 6-34 2-8-4-14-11-16-21-2-8-1-16 3-23 3-4 6-6 10-8 4-1 8-1 13 1s10 6 16 12l-4-15c-2-7-5-13-8-16s-7-3-11-2h-1a28 28 0 0 0-13 17c0 2-1 3-3 4l-5 1-5-3-1-6zm50 45-10-16c-3-4-7-7-10-8-2-1-4 0-5 2-3 3-3 7-2 12s4 9 8 11c5 2 11 2 19-1zM257 479h-1l-5-1c-2-2-3-3-3-5-3-26-4-49-5-68a409 409 0 0 1 6-77l3-4h5l4 2a1363 1363 0 0 1 2 97l9-13c4-5 8-9 13-11l2-1c5-2 11-2 16 0 4 1 8 4 11 8 4 4 6 9 8 15 3 11 2 23-3 33-6 12-17 19-31 23h-3a235 235 0 0 1-18 2l-7-1-3 1zm34-67c-3 1-5 4-8 7a85 85 0 0 0-18 46h3a39 39 0 0 0 14-2h2c6-2 11-6 15-12s6-13 6-20c1-7-1-12-4-16-2-3-6-4-10-3zM342 479h-1l-5-1-3-5c-3-26-4-49-4-68a409 409 0 0 1 5-77l3-4h5l4 2a1363 1363 0 0 1 2 97l10-13c4-5 8-9 12-11h1l1-1c6-2 11-2 16 0 5 1 8 4 12 8 3 4 5 9 7 15 3 11 2 23-3 33-6 12-16 19-31 23h-2a235 235 0 0 1-19 2l-6-1-3 1h-1zm34-67-7 7a85 85 0 0 0-19 46h3a39 39 0 0 0 15-2h1c7-2 12-6 16-12 3-6 5-13 6-20 0-7-1-12-4-16-3-3-6-4-11-3zM428 404a725 725 0 0 1 20 50l5 9a770 770 0 0 0 8-28l2-8a666 666 0 0 1 12-34c2-2 4-2 6-1 2 0 4 1 5 3v6l-5 21-9 35c-5 20-10 35-16 45-4 7-7 12-11 15-5 4-10 5-16 4l-7-4-1-2c-3-2-5-5-6-9v-5l4-4h6l3 4c1 3 3 4 4 5h1c2-1 5-5 7-10l7-14a177 177 0 0 1-33-73c-1-3 0-4 1-6a7 7 0 0 1 8-3c3 1 4 2 5 4zM315 662h-1c-2 0-4 0-5-2l-3-4c-3-27-4-49-5-68a409 409 0 0 1 6-77c0-2 1-3 3-4l5-1 4 3c1 2 2 3 1 5a1363 1363 0 0 1 1 92l9-13c4-5 8-9 13-11v-1h2c5-3 11-3 16-1 4 2 8 4 11 9 4 4 6 9 8 14 3 12 2 23-3 34-6 11-17 19-31 22h-1l-1 1h-1a235 235 0 0 1-18 2l-7-1-3 1zm34-68-8 7a85 85 0 0 0-18 46l3 1a39 39 0 0 0 14-2h2c6-2 11-6 15-12s6-13 6-21c1-6-1-12-4-15-2-3-6-4-10-4zM405 582c2 4 2 10 3 15a178 178 0 0 1 2 27c0 4 1 7 3 9l4 6c2 0 5 0 8-2l3-2 8-13a10499 10499 0 0 0-1-42l3-6 5-2c2 0 4 2 6 4l1 3c4 29 5 55 1 78v1c-1 3-4 5-7 5l-5-2-2-5v-9c-5 4-9 8-14 10-7 3-13 2-18-1-6-4-9-11-11-21a175 175 0 0 1-3-39l-1-12c0-2 1-4 3-5l4-3 5 1c2 1 3 3 3 5zM488 514a358 358 0 0 1 5 74h13a7 7 0 0 1 7 7l-2 6-5 2-4-1h-9a1880 1880 0 0 1 0 30c0 7 2 13 5 18l1-2c1-2 3-3 5-3l5 1c2 1 3 3 3 5l-1 5-6 7c-3 3-7 3-12 2-6-1-12-6-15-14-3-5-4-13-5-23l-1-25h-9c-2 1-4 0-5-1-2-1-3-3-3-5l2-5c1-2 3-2 5-3h10a15854 15854 0 0 1 4-80 7 7 0 0 1 11 1l1 4zM614 577h1l1 1a34 34 0 0 1 24 19v6c0 2-2 3-4 4h-5l-4-4c-1-3-3-6-6-8l-9-4c-5 0-9 2-12 7-4 7-6 14-6 24 0 9 2 16 5 21 3 4 7 5 13 3 3-2 4-6 5-9 0-2 2-4 3-5l6-1c2 0 3 1 4 3s2 4 1 5c-2 10-6 16-13 21-8 5-17 5-26-1-10-6-15-17-17-32v-20c1-6 3-11 6-15 4-6 8-10 14-12 6-3 12-4 18-3h1zM666 582a178 178 0 0 1 4 42c2 4 2 7 4 9 1 3 3 5 5 6 2 0 4 0 7-2l3-2 8-13a10568 10568 0 0 0 0-42c0-2 0-4 2-6l5-2c2 0 4 2 6 4l1 3c5 29 5 55 1 78v1c-1 3-4 5-7 5l-5-2-2-5v-9c-5 4-9 8-14 10-7 3-13 2-18-1-6-4-9-11-11-21a175 175 0 0 1-3-39v-12c0-2 0-4 2-5l4-3 5 1c2 1 3 3 3 5zM750 514a358 358 0 0 1 4 74h13a7 7 0 0 1 7 7l-2 6-5 2-4-1h-9a1885 1885 0 0 1 0 30c0 7 2 13 5 18l1-2c1-2 3-3 5-3l5 1c2 1 3 3 3 5 1 2 0 4-1 5l-6 7c-3 3-7 3-12 2-6-1-11-6-15-14-2-5-4-13-5-23l-1-25h-9c-2 1-4 0-5-1-2-1-3-3-3-5l2-5c1-2 3-2 5-3h10a15854 15854 0 0 1 4-80 7 7 0 0 1 11 1l2 4zM821 572c6 1 11 4 16 9 6 7 9 18 9 31l-1 4c-1 2-3 4-6 4a429 429 0 0 1-39 3c1 6 2 11 5 15 3 6 9 8 16 8l4-3c4-3 6-7 6-10l4-4c1-1 3-2 5-1 2 0 3 1 5 3l1 5c-2 6-6 12-11 18-7 6-14 9-21 9-9 0-17-3-22-9-4-4-7-10-9-17a124 124 0 0 1-2-14v-3c-1-13 2-24 8-33a33 33 0 0 1 25-16 19 19 0 0 1 7 1zm-5 14c-3 0-6 2-9 6-3 5-5 10-6 16h2a50 50 0 0 0 5 0h4l20-1c-1-8-3-13-6-17-3-3-6-4-10-4z"/></g></svg>